<svg id="color_line" height="512" viewBox="0 0 74 74" width="512" xmlns="http://www.w3.org/2000/svg" data-name="color line"><path d="m40.866 13.9a14.2 14.2 0 0 1 1.609-1.767 12.678 12.678 0 0 1 6.91-3.376c-2.69-2.346-7.322-1.992-11.169.765a12.711 12.711 0 0 1 1.109-2.452 12.761 12.761 0 0 1 5.575-5.31c-3.386-1.46-7.862.422-10.708 4.456-2.846-4.034-7.321-5.916-10.707-4.456a12.811 12.811 0 0 1 5.574 5.31 12.651 12.651 0 0 1 1.109 2.453c-3.857-2.757-8.479-3.111-11.168-.765a12.672 12.672 0 0 1 6.909 3.376 14.207 14.207 0 0 1 1.61 1.767c-4.26-1.777-8.706-1.149-10.826 1.629a14.288 14.288 0 0 1 7.449 1.913 11.348 11.348 0 0 1 4.7 4.1 12.47 12.47 0 0 1 1.868 6.74v.275h6.968v-.28a12.483 12.483 0 0 1 1.862-6.738 11.312 11.312 0 0 1 4.7-4.1 14.288 14.288 0 0 1 7.449-1.913c-2.118-2.775-6.564-3.403-10.823-1.627z" fill="#6fc666"/><path d="m32.111 9.05a12.677 12.677 0 0 0 -4.411-3.94 12.128 12.128 0 0 0 -4.22-3.35c3.39-1.46 7.86.42 10.71 4.46 2.851-4.04 7.321-5.92 10.71-4.46a11.664 11.664 0 0 0 -3.41 2.45c-3.159-.56-6.899 1.32-9.379 4.84z" fill="#65b54e"/><path d="m38.211 9.52c3.85-2.75 8.48-3.11 11.17-.76a11.8 11.8 0 0 0 -4.49 1.57c-2.6-.74-5.9-.02-8.76 2.03a13.036 13.036 0 0 1 1.11-2.45 13.451 13.451 0 0 1 1.99-2.67 12.759 12.759 0 0 0 -1.02 2.28z" fill="#65b54e"/><path d="m51.691 15.53a11.616 11.616 0 0 0 -4.89.79 10.9 10.9 0 0 0 -8.02.42 14 14 0 0 1 1.61-1.77 13.515 13.515 0 0 1 2.19-1.65c3.69-.99 7.27-.2 9.11 2.21z" fill="#65b54e"/><path d="m37.676 29.054h-6.968a.5.5 0 0 1 -.5-.5v-.275a11.946 11.946 0 0 0 -1.789-6.47 10.829 10.829 0 0 0 -4.5-3.92 13.787 13.787 0 0 0 -7.183-1.861.5.5 0 0 1 -.437-.8c1.934-2.535 5.72-3.425 9.612-2.4-.11-.111-.224-.22-.341-.329a12.144 12.144 0 0 0 -6.628-3.245.5.5 0 0 1 -.268-.873c2.55-2.225 6.692-2.22 10.46-.109q-.228-.48-.5-.95a12.3 12.3 0 0 0 -5.352-5.108.5.5 0 0 1 .011-.913c3.407-1.476 7.907.235 10.899 4.076 2.995-3.841 7.492-5.55 10.908-4.077a.5.5 0 0 1 .01.913 12.221 12.221 0 0 0 -5.348 5.1c-.185.315-.353.631-.5.953 3.762-2.112 7.9-2.118 10.459.111a.5.5 0 0 1 -.269.873 12.146 12.146 0 0 0 -6.63 3.247c-.116.108-.228.217-.338.327 3.9-1.028 7.677-.136 9.611 2.4a.5.5 0 0 1 .041.542.492.492 0 0 1 -.479.259 13.718 13.718 0 0 0 -7.181 1.861 10.793 10.793 0 0 0 -4.508 3.921 11.955 11.955 0 0 0 -1.785 6.464v.28a.5.5 0 0 1 -.507.503zm-6.47-1h5.972a12.888 12.888 0 0 1 1.941-6.783 11.739 11.739 0 0 1 4.898-4.271 16.357 16.357 0 0 1 6.5-1.983c-2.165-1.856-5.869-2.151-9.459-.652a.5.5 0 0 1 -.59-.764 14.725 14.725 0 0 1 1.665-1.829 13.555 13.555 0 0 1 5.986-3.29c-2.56-1.423-6.336-.9-9.613 1.451a.5.5 0 0 1 -.766-.563 13.051 13.051 0 0 1 1.153-2.55 13.6 13.6 0 0 1 4.714-4.94c-2.988-.593-6.601 1.22-9.007 4.62a.518.518 0 0 1 -.817 0c-2.407-3.41-6.026-5.212-9.008-4.623a13.7 13.7 0 0 1 4.717 4.94 13.041 13.041 0 0 1 1.15 2.546.5.5 0 0 1 -.766.563c-3.28-2.346-7.054-2.871-9.612-1.451a13.564 13.564 0 0 1 5.984 3.288 14.824 14.824 0 0 1 1.668 1.837.5.5 0 0 1 0 .608.5.5 0 0 1 -.588.156c-3.594-1.5-7.294-1.2-9.46.652a16.352 16.352 0 0 1 6.501 1.984 11.763 11.763 0 0 1 4.892 4.272 12.875 12.875 0 0 1 1.945 6.782z" fill="#323c6b"/><path d="m32.379 23.239a.563.563 0 0 1 -.5-.441 2.8 2.8 0 0 0 -.119-.4.561.561 0 1 1 1.074-.322 4.11 4.11 0 0 1 .143.483.561.561 0 0 1 -.431.667.543.543 0 0 1 -.167.013z" fill="#fff"/><path d="m31.422 20.992a.558.558 0 0 1 -.45-.3 9.218 9.218 0 0 0 -3.543-3.646q-.418-.258-.835-.491a.561.561 0 0 1 .547-.98q.437.245.878.517a10.3 10.3 0 0 1 3.946 4.076.562.562 0 0 1 -.235.758.553.553 0 0 1 -.308.066z" fill="#fff"/><path d="m15.469 50.071c0-17.885 8.382-24.4 18.722-24.4s18.723 6.511 18.723 24.4c0 13.474-8.382 22.2-18.723 22.2s-18.722-8.726-18.722-22.2z" fill="#fcd462"/><path d="m52.911 50.07c0 13.48-8.38 22.2-18.72 22.2a17.467 17.467 0 0 1 -13.9-6.84 17.273 17.273 0 0 0 10.65 3.61c10.34 0 18.72-8.72 18.72-22.2 0-8.23-1.77-14.06-4.7-17.94 4.81 3.54 7.95 10.22 7.95 21.17z" fill="#f7be56"/><g fill="#323c6b"><path d="m52.121 41.928a.494.494 0 0 1 -.313-.111l-19.54-15.69a.5.5 0 1 1 .627-.779l19.54 15.69a.5.5 0 0 1 -.314.89z"/><path d="m52.9 51.328a.5.5 0 0 1 -.313-.11l-28.287-22.71a.5.5 0 0 1 .627-.78l28.29 22.71a.5.5 0 0 1 -.314.89z"/><path d="m51.642 59.1a.5.5 0 0 1 -.314-.111l-32.01-25.71a.5.5 0 0 1 .627-.779l32.01 25.71a.5.5 0 0 1 -.313.89z"/><path d="m48.521 65.358a.5.5 0 0 1 -.313-.11l-31.76-25.5a.5.5 0 0 1 .627-.78l31.76 25.5a.5.5 0 0 1 -.314.89z"/><path d="m43.481 70.1a.5.5 0 0 1 -.313-.11l-27.93-22.42a.5.5 0 0 1 .627-.78l27.935 22.418a.5.5 0 0 1 -.314.89z"/><path d="m35.781 72.688a.5.5 0 0 1 -.312-.11l-19.63-15.75a.5.5 0 0 1 .625-.78l19.63 15.752a.5.5 0 0 1 -.313.89z"/><path d="m16.262 41.928a.5.5 0 0 1 -.314-.89l19.54-15.69a.5.5 0 0 1 .627.779l-19.54 15.69a.5.5 0 0 1 -.313.111z"/><path d="m15.481 51.328a.5.5 0 0 1 -.313-.89l28.29-22.71a.5.5 0 0 1 .627.78l-28.285 22.71a.5.5 0 0 1 -.319.11z"/><path d="m16.741 59.1a.5.5 0 0 1 -.313-.89l32.01-25.71a.5.5 0 1 1 .626.779l-32.009 25.708a.5.5 0 0 1 -.314.113z"/><path d="m19.861 65.358a.5.5 0 0 1 -.313-.89l31.76-25.5a.5.5 0 0 1 .627.78l-31.76 25.5a.5.5 0 0 1 -.314.11z"/><path d="m24.9 70.1a.5.5 0 0 1 -.313-.89l27.93-22.42a.5.5 0 0 1 .627.78l-27.93 22.42a.5.5 0 0 1 -.314.11z"/><path d="m32.6 72.688a.5.5 0 0 1 -.313-.89l19.63-15.75a.5.5 0 0 1 .625.78l-19.63 15.75a.5.5 0 0 1 -.312.11z"/><path d="m46.566 71.635a.5.5 0 0 1 -.3-.9 21.142 21.142 0 0 0 4.634-4.905.5.5 0 1 1 .825.564 22.111 22.111 0 0 1 -4.854 5.139.5.5 0 0 1 -.305.102z"/><path d="m44.129 73.232a.5.5 0 0 1 -.242-.938c.129-.071.255-.149.38-.227l.229-.142a.5.5 0 0 1 .516.858l-.217.133c-.14.087-.28.174-.424.253a.494.494 0 0 1 -.242.063z"/><path d="m14.28 37.685a.5.5 0 0 1 -.474-.657 24.639 24.639 0 0 1 2.81-5.911.5.5 0 1 1 .834.552 23.647 23.647 0 0 0 -2.695 5.672.5.5 0 0 1 -.475.344z"/><path d="m18.361 30.1a.5.5 0 0 1 -.382-.821c.169-.2.342-.393.516-.583a.509.509 0 0 1 .714-.04.49.49 0 0 1 .039.7l-.015.016c-.164.18-.328.36-.489.551a.5.5 0 0 1 -.383.177z"/><path d="m34.191 72.768c-11.138 0-19.222-9.545-19.222-22.7 0-21.661 12.044-24.9 19.222-24.9s19.223 3.235 19.223 24.9c0 13.155-8.084 22.7-19.223 22.7zm0-46.593c-11.751 0-18.222 8.487-18.222 23.9 0 12.572 7.664 21.7 18.222 21.7s18.223-9.125 18.223-21.7c0-15.413-6.472-23.9-18.223-23.9z"/></g></svg>